<svg id="Layer_1" data-name="Layer 1" xmlns="http://www.w3.org/2000/svg" viewBox="0 0 80 80"><defs><style>.cls-1{fill:#29356a;}</style></defs><title>track</title><path class="cls-1" d="M18.41,62.46a5.68,5.68,0,0,1,0-11.36H40.14a10.22,10.22,0,1,0,0-20.44H24.82V35.2H40.14a5.68,5.68,0,1,1,0,11.36H18.41a10.22,10.22,0,0,0,0,20.44H55.34V62.46Z"/><path class="cls-1" d="M22.36,10A12.32,12.32,0,0,0,4.93,27.43l8.72,8.71,8.71-8.71A12.33,12.33,0,0,0,22.36,10ZM19.15,24.22l-5.5,5.5-5.51-5.5a7.79,7.79,0,1,1,11,0Z"/><path class="cls-1" d="M13.59,13.24A5.4,5.4,0,1,0,19,18.63,5.4,5.4,0,0,0,13.59,13.24Zm0,6.24a.85.85,0,1,1,.85-.85A.85.85,0,0,1,13.59,19.48Z"/><path class="cls-1" d="M75.23,41.79A12.32,12.32,0,0,0,57.8,59.22l8.71,8.72,8.72-8.72A12.35,12.35,0,0,0,75.23,41.79ZM72,56l-5.51,5.51L61,56a7.78,7.78,0,1,1,11,0Z"/><path class="cls-1" d="M66.45,45a5.4,5.4,0,1,0,5.4,5.4A5.4,5.4,0,0,0,66.45,45Zm0,6.25a.85.85,0,1,1,.86-.85A.85.85,0,0,1,66.45,51.28Z"/></svg>